# xmcd
#
# Track frame offsets: 
#        150
#        18662
#        39592
#        59057
#        79902
#        96630
#        111590
#        127010
#        146380
#        163915
#        182257
#        198830
#
# Disc length: 2845 seconds
#
# Revision: 2
# Processed by: cddbd v1.5.1PL2 Copyright (c) Steve Scherf et al.
# Submitted via: ExactAudioCopy v0.95b3
#
DISCID=b10b1b0c
DTITLE=Taj Mahal - Blue Light Boogie
DYEAR=1999
DGENRE=Blues
TTITLE0=River of Love
TTITLE1=Honky Tonk Women
TTITLE2=Don't Call Us
TTITLE3=Take a Giant Step
TTITLE4=Down Home Girl
TTITLE5=Feets Don't Fail Me Now
TTITLE6=Dark Angel
TTITLE7=Big Legged Mommas Are Back in Style
TTITLE8=John the Revelator
TTITLE9=Blue Light Boogie
TTITLE10=She Caught the Katy
TTITLE11=Mercedes Benz
EXTD=
EXTT0=
EXTT1=
EXTT2=
EXTT3=
EXTT4=
EXTT5=
EXTT6=
EXTT7=
EXTT8=
EXTT9=
EXTT10=
EXTT11=
PLAYORDER=
